<?xml version="1.0" encoding="UTF-8"?>
<svg version="1.1" xmlns="http://www.w3.org/2000/svg" width="623" height="199">
<path d="M0 0 C4.10557604 2.64581567 7.24385169 5.10655508 8.8125 9.8125 C8.91037866 11.43852539 8.95172547 13.06824008 8.95967102 14.69718933 C8.97040398 16.20848167 8.97040398 16.20848167 8.98135376 17.75030518 C8.98404266 18.85517273 8.98673157 19.96004028 8.98950195 21.09838867 C8.99607315 22.26306168 9.00264435 23.42773468 9.00941467 24.62770081 C9.02917564 28.49529077 9.04082148 32.3628417 9.05078125 36.23046875 C9.05483124 37.56708611 9.05894823 38.90370326 9.06313133 40.24032021 C9.0821942 46.53117275 9.09641402 52.82201359 9.1047433 59.11288947 C9.11447249 66.33991358 9.14067302 73.56662786 9.18124419 80.79354304 C9.21160942 86.39805591 9.22623192 92.00248115 9.22952431 97.60707456 C9.23185489 100.94446462 9.24258204 104.28126422 9.26598549 107.61861229 C9.42498816 131.81196157 7.10757162 151.70662349 -9.1875 170.8125 C-10.08275391 172.00552734 -10.08275391 172.00552734 -10.99609375 173.22265625 C-22.48417342 186.79947768 -41.1529248 196.50527 -58.75390625 198.03564453 C-80.73606482 199.28249883 -100.97126454 193.84412778 -117.7355957 179.15087891 C-131.99013554 165.9738864 -141.58901157 147.66010443 -142.49609375 128.23046875 C-143.14404167 106.02192141 -138.62905382 87.63226172 -123.1875 70.8125 C-108.35935412 55.33740186 -88.23598363 47.03581091 -66.9375 46.5 C-51.6959735 46.74935013 -36.91256555 50.17897145 -24.1875 58.8125 C-24.17870064 57.97137917 -24.17870064 57.97137917 -24.16972351 57.11326599 C-24.10559622 51.2564182 -24.02112745 45.4001101 -23.92504883 39.54370117 C-23.89187448 37.3605055 -23.8638194 35.17722561 -23.84106445 32.99389648 C-23.80738096 29.84843183 -23.75505724 26.70373376 -23.69921875 23.55859375 C-23.69282883 22.5885289 -23.6864389 21.61846405 -23.67985535 20.6190033 C-23.52641301 13.48395412 -22.55406049 8.54314672 -17.75 3 C-12.207292 -1.73158 -6.87356889 -2.56074135 0 0 Z M-101.2890625 94.19921875 C-108.82447296 104.41210485 -112.10130107 115.1854307 -111.1875 127.8125 C-109.01175088 140.28451071 -102.7500607 151.36238643 -92.390625 158.828125 C-82.07606845 165.18787748 -71.58869454 168.45463005 -59.50390625 166.34375 C-48.20364863 163.65092265 -38.31784149 158.10070799 -31.1875 148.8125 C-24.00868204 137.11182883 -20.94832048 125.22788359 -23.87109375 111.6328125 C-28.21882444 98.89630684 -36.45948981 88.82417405 -48.5 82.875 C-67.01398245 74.088364 -87.6216097 78.67726027 -101.2890625 94.19921875 Z " fill="#8F8F8F" transform="translate(298.1875,1.1875)"/>
<path d="M0 0 C14.89675486 12.4398248 24.51673443 30.89469857 26.5625 50.12890625 C28.15716467 73.25154402 21.25254765 92.65443684 6.375 110.31640625 C-6.65744656 124.24301724 -24.67923324 132.49066907 -43.65234375 133.4453125 C-65.91093985 134.13270175 -85.94248781 128.37456256 -102.53515625 113.03515625 C-117.83617947 98.10047435 -124.60232537 79.30905154 -124.875 58.25390625 C-124.75523673 38.69090944 -118.61031906 21.78300617 -105.4375 7.12890625 C-104.91929687 6.51789063 -104.40109375 5.906875 -103.8671875 5.27734375 C-76.28787838 -25.07375524 -30.67577988 -23.54759385 0 0 Z M-83.39453125 29.57421875 C-91.11790077 39.2321225 -94.59853003 50.87358922 -93.4375 63.12890625 C-91.31190347 75.43593155 -85.4150729 86.46935534 -75.4375 94.12890625 C-63.29290813 101.58008687 -50.79974608 104.57417702 -36.74609375 101.2578125 C-23.55147187 96.50650238 -14.32314596 87.73755555 -8.26171875 75.1484375 C-3.84900194 64.33623565 -3.97067171 52.68043109 -8.1796875 41.8046875 C-14.45175091 28.46194392 -23.90002108 20.61450553 -37.52734375 15.31640625 C-54.6891617 10.09166675 -71.52834238 17.09896886 -83.39453125 29.57421875 Z " fill="#8F8F8F" transform="translate(439.4375,65.87109375)"/>
<path d="M0 0 C15.41834261 12.26036882 27.44043162 29.05301881 30 49 C31.72857299 70.40101968 28.54147431 90.029758 15.0625 107.375 C13.72773613 108.93349571 12.37430394 110.47625719 11 112 C10.11248047 113.02673828 10.11248047 113.02673828 9.20703125 114.07421875 C-3.06050504 127.38802679 -21.17713185 135.5432283 -39.19140625 136.3359375 C-61.43685217 136.71148331 -80.08909765 132.25528953 -97 117 C-97.69609375 116.39671875 -98.3921875 115.7934375 -99.109375 115.171875 C-113.25211426 102.12547212 -119.99695292 83.14428152 -121.1640625 64.359375 C-121.74461622 45.0427693 -116.14410231 28.08139535 -104 13 C-103.29617188 12.05060547 -103.29617188 12.05060547 -102.578125 11.08203125 C-91.29685798 -3.41771489 -72.1774286 -11.62654655 -54.5 -14.5859375 C-34.59520342 -16.94074602 -16.13774997 -11.77106468 0 0 Z M-78.8125 31.8125 C-87.33469093 42.18384556 -89.9399036 53.8708949 -89.19091797 67.06982422 C-88.16865756 77.40485085 -81.66194093 87.89885513 -74.1875 94.875 C-63.16573231 103.79942161 -50.83999119 106.3165271 -37 105 C-24.88243782 102.42739331 -14.29950137 94.48385304 -7.3125 84.375 C-1.62776323 74.64318242 0.62295576 63.83628344 -1.66015625 52.8125 C-5.16606803 39.94231303 -12.01307236 29.47030378 -23.515625 22.46875 C-42.72757911 12.33238157 -63.94432564 15.95097779 -78.8125 31.8125 Z " fill="#8F8F8F" transform="translate(593,63)"/>
<path d="M0 0 C15.85447327 12.90210068 26.47723247 28.6293787 30 49 C30.74643555 60.95314747 31.24996478 73.66102515 27 85 C26.67128906 85.96292969 26.34257812 86.92585938 26.00390625 87.91796875 C18.81650126 107.14241185 4.01718071 121.99539921 -14.43359375 130.6015625 C-33.22326745 138.17054766 -55.21831188 138.93182297 -74.08642578 131.13818359 C-82.46529797 127.45531017 -90.1718516 123.15816307 -97 117 C-97.58652344 116.505 -98.17304687 116.01 -98.77734375 115.5 C-113.24509544 102.37732273 -120.0609937 82.731385 -121.12890625 63.703125 C-121.58383171 45.14216626 -116.16746857 28.71664381 -105 14 C-104.50757812 13.33613281 -104.01515625 12.67226562 -103.5078125 11.98828125 C-78.55255011 -19.38203446 -31.31278645 -22.91067513 0 0 Z M-78.8125 31.8125 C-87.33469093 42.18384556 -89.9399036 53.8708949 -89.19091797 67.06982422 C-88.16865756 77.40485085 -81.66194093 87.89885513 -74.1875 94.875 C-63.16573231 103.79942161 -50.83999119 106.3165271 -37 105 C-25.99248136 102.66305997 -15.96151868 95.76418562 -9 87 C-2.4546891 76.23143972 0.97768255 65.32657111 -1.6875 52.7578125 C-5.39715882 39.61943751 -11.81615973 29.68787691 -23.5859375 22.3984375 C-42.60873592 12.38951895 -64.04263674 16.08974233 -78.8125 31.8125 Z " fill="#A24689" transform="translate(121,63)"/>
</svg>
