<?xml version="1.0" encoding="UTF-8"?>
<svg version="1.1" xmlns="http://www.w3.org/2000/svg" width="225" height="225">
<path d="M0 0 C2.31017043 0.01610385 4.61859244 0.00003679 6.92871094 -0.01904297 C22.64007537 -0.04328519 38.81095865 1.74473744 51.41308594 12.12158203 C58.64204017 19.90250075 58.75930268 28.87247442 58.70996094 38.94580078 C58.7142662 40.89089035 58.7142662 40.89089035 58.71865845 42.87527466 C58.72306031 45.61031921 58.71672268 48.34506818 58.70263672 51.08007812 C58.68557969 54.55869649 58.6953768 58.03661845 58.71335411 61.51521111 C58.72690434 64.86712763 58.71736919 68.21886458 58.70996094 71.57080078 C58.71603363 72.80651825 58.72210632 74.04223572 58.72836304 75.31539917 C58.65248873 84.74037837 57.69376694 94.00114712 51.31152344 101.39111328 C44.67528514 106.65957727 38.53969474 109.62060053 29.94580078 109.67822266 C28.70365814 109.69163696 27.4615155 109.70505127 26.18173218 109.71887207 C25.52491833 109.72143509 24.86810448 109.72399811 24.19138718 109.72663879 C22.11232436 109.73500467 20.03368496 109.75558339 17.95474243 109.7791748 C13.53206673 109.82721246 9.10934758 109.86020379 4.68652344 109.89111328 C-0.42376223 109.92701464 -5.53384229 109.96937578 -10.64393234 110.02705383 C-12.67089676 110.04681117 -14.69796162 110.05524563 -16.7250061 110.06335449 C-29.77898844 110.20221445 -40.78047401 110.64011078 -50.43847656 120.07861328 C-57.55866923 129.66314399 -57.33939675 140.11041371 -57.43847656 151.51611328 C-57.46668547 153.1567691 -57.49661963 154.79739621 -57.52832031 156.43798828 C-57.60159876 160.42231102 -57.65152701 164.40629484 -57.68847656 168.39111328 C-62.02157984 168.50807828 -66.35427236 168.57862218 -70.68847656 168.64111328 C-71.90921875 168.67462891 -73.12996094 168.70814453 -74.38769531 168.74267578 C-83.16685174 168.83758558 -89.68933832 167.85503273 -96.25097656 161.51611328 C-108.64487416 148.18629206 -110.28689947 129.76550351 -110.12597656 112.45361328 C-110.12293518 111.75588806 -110.1198938 111.05816284 -110.11676025 110.33929443 C-110.00987249 93.7431872 -107.98768655 79.28361847 -96.37597656 66.51611328 C-89.34388621 59.89032148 -80.95361122 58.23351186 -71.61523438 58.27758789 C-70.40003868 58.27736885 -70.40003868 58.27736885 -69.16029358 58.27714539 C-66.48736883 58.27784104 -63.81451411 58.28561723 -61.14160156 58.29345703 C-59.28643838 58.29532244 -57.4312747 58.29674576 -55.57611084 58.29774475 C-50.69678382 58.30156023 -45.81748663 58.31138226 -40.93817139 58.32244873 C-35.95780847 58.33268367 -30.97744072 58.33724684 -25.99707031 58.34228516 C-16.22752597 58.35300538 -6.45800375 58.37007019 3.31152344 58.39111328 C3.31152344 56.08111328 3.31152344 53.77111328 3.31152344 51.39111328 C-14.83847656 51.39111328 -32.98847656 51.39111328 -51.68847656 51.39111328 C-51.75035156 46.39986328 -51.81222656 41.40861328 -51.87597656 36.26611328 C-51.90328857 34.70231934 -51.93060059 33.13852539 -51.95874023 31.52734375 C-51.96623291 30.28355957 -51.97372559 29.03977539 -51.98144531 27.75830078 C-51.99715576 26.49099121 -52.01286621 25.22368164 -52.02905273 23.91796875 C-51.49236514 18.36027057 -49.28182273 14.42742243 -45.12597656 10.76611328 C-32.7863959 0.61725527 -15.31460297 -0.12648656 0 0 Z M-35.68847656 22.39111328 C-37.2578325 25.52982516 -37.04048759 27.9296715 -36.68847656 31.39111328 C-34.70064219 34.31074501 -33.25700687 36.00214306 -29.75097656 36.87158203 C-25.7883175 37.14926837 -24.02436255 36.6220349 -20.68847656 34.32861328 C-18.16917421 30.62838795 -17.98184246 28.78794768 -18.68847656 24.39111328 C-20.48410061 21.63782307 -21.74102578 19.86483867 -24.68847656 18.39111328 C-29.80366661 17.82275883 -32.0168924 18.82443152 -35.68847656 22.39111328 Z " fill="#3672A4" transform="translate(109.6884765625,-0.39111328125)"/>
<path d="M0 0 C4.12461681 -0.14688806 8.24854924 -0.23460044 12.375 -0.3125 C13.53128906 -0.35439453 14.68757812 -0.39628906 15.87890625 -0.43945312 C25.05988628 -0.56912798 31.39442116 1.26193448 38.55078125 7.0703125 C49.93891143 20.3522559 52.55109669 36.2593957 52.44604492 53.33129883 C52.43751644 55.43344798 52.46647087 57.53288073 52.49804688 59.63476562 C52.57391968 74.45687488 49.62269803 90.15849122 39.25 101.375 C31.89929063 108.26629003 23.73042932 110.15979755 13.92675781 110.11352539 C12.71156212 110.11374443 12.71156212 110.11374443 11.47181702 110.1139679 C8.79889227 110.11327224 6.12603755 110.10549606 3.453125 110.09765625 C1.59796181 110.09579084 -0.25720187 110.09436752 -2.11236572 110.09336853 C-6.99169274 110.08955305 -11.87098993 110.07973102 -16.75030518 110.06866455 C-21.7306681 110.05842961 -26.71103584 110.05386644 -31.69140625 110.04882812 C-41.4609506 110.0381079 -51.23047282 110.02104309 -61 110 C-61 112.31 -61 114.62 -61 117 C-42.85 117 -24.7 117 -6 117 C-5.9175 121.970625 -5.835 126.94125 -5.75 132.0625 C-5.71358398 133.61718994 -5.67716797 135.17187988 -5.63964844 136.77368164 C-5.56958666 145.47885695 -6.02259048 150.05740577 -11.46484375 156.8203125 C-23.97696195 167.90531908 -41.68203242 168.3601081 -57.51708984 168.31567383 C-59.86473102 168.31251382 -62.21110717 168.3360626 -64.55859375 168.36132812 C-79.96217726 168.42642895 -97.86486498 166.71629851 -109.6015625 155.609375 C-114.46956733 150.00709011 -116.1126032 144.49504376 -116.16113281 137.19677734 C-116.17074036 136.02811127 -116.1803479 134.85944519 -116.19024658 133.65536499 C-116.19449646 132.39495392 -116.19874634 131.13454285 -116.203125 129.8359375 C-116.21167511 127.88235825 -116.21167511 127.88235825 -116.22039795 125.88931274 C-116.23089203 123.13046887 -116.23674414 120.37165398 -116.24023438 117.61279297 C-116.24569576 114.10274064 -116.26967926 110.5930808 -116.29820633 107.08315086 C-116.32148864 103.7090885 -116.32329341 100.3350759 -116.328125 96.9609375 C-116.3404718 95.71267181 -116.3528186 94.46440613 -116.36553955 93.17831421 C-116.33942674 82.84508812 -115.21553088 74.33216488 -107.89453125 66.6875 C-101.83892606 61.29364135 -94.79687163 58.76790411 -86.72607422 58.71289062 C-85.50395233 58.69947632 -84.28183044 58.68606201 -83.02267456 58.67224121 C-81.71323883 58.66696411 -80.4038031 58.66168701 -79.0546875 58.65625 C-77.67952346 58.64258723 -76.30437021 58.62779692 -74.92922974 58.61193848 C-70.57788481 58.56390657 -66.22649572 58.53091286 -61.875 58.5 C-56.84731827 58.46409298 -51.81984532 58.42172242 -46.79236221 58.36405945 C-44.79863746 58.3443092 -42.80481072 58.33586917 -40.81100464 58.32775879 C-27.80953325 58.18722629 -16.86564833 57.70961087 -7.25 48.3125 C-0.12980733 38.72796929 -0.34907981 28.28069957 -0.25 16.875 C-0.2217911 15.23434418 -0.19185693 13.59371707 -0.16015625 11.953125 C-0.08687781 7.96880226 -0.03694956 3.98481844 0 0 Z M-39 137 C-39.69151325 141.30274909 -39.51557405 143.20945312 -37.125 146.875 C-34.61333682 149.38666318 -33.70615837 149.92153796 -30.1875 150.3125 C-26.2692355 149.92835642 -24.78706733 148.70743683 -22 146 C-20.43064406 142.86128812 -20.64798897 140.46144178 -21 137 C-22.98783437 134.08036827 -24.4314697 132.38897022 -27.9375 131.51953125 C-33.20205839 131.15061333 -35.94886975 132.51865244 -39 137 Z " fill="#FFD242" transform="translate(173,57)"/>
</svg>
